<svg width="20" height="36" viewBox="0 0 20 36" fill="none" xmlns="http://www.w3.org/2000/svg">
<g opacity="0.5">
<path fill-rule="evenodd" clip-rule="evenodd" d="M14.7074 12.707C14.5199 12.8945 14.2656 12.9998 14.0004 12.9998C13.7352 12.9998 13.4809 12.8945 13.2934 12.707L10.0004 9.41403L6.70741 12.707C6.5188 12.8892 6.2662 12.99 6.00401 12.9877C5.74181 12.9854 5.491 12.8803 5.30559 12.6948C5.12018 12.5094 5.01501 12.2586 5.01273 11.9964C5.01045 11.7342 5.11125 11.4816 5.29341 11.293L9.29341 7.29303C9.48094 7.10556 9.73524 7.00024 10.0004 7.00024C10.2656 7.00024 10.5199 7.10556 10.7074 7.29303L14.7074 11.293C14.8949 11.4806 15.0002 11.7349 15.0002 12C15.0002 12.2652 14.8949 12.5195 14.7074 12.707Z" fill="#242424"/>
</g>
<g opacity="0.5">
<path fill-rule="evenodd" clip-rule="evenodd" d="M5.29279 23.2931C5.48031 23.1056 5.73462 23.0003 5.99979 23.0003C6.26495 23.0003 6.51926 23.1056 6.70679 23.2931L9.99979 26.5861L13.2928 23.2931C13.385 23.1976 13.4954 23.1214 13.6174 23.069C13.7394 23.0166 13.8706 22.989 14.0034 22.9878C14.1362 22.9867 14.2678 23.012 14.3907 23.0623C14.5136 23.1125 14.6253 23.1868 14.7192 23.2807C14.8131 23.3746 14.8873 23.4862 14.9376 23.6091C14.9879 23.732 15.0132 23.8637 15.012 23.9965C15.0109 24.1293 14.9833 24.2605 14.9309 24.3825C14.8785 24.5045 14.8023 24.6148 14.7068 24.7071L10.7068 28.7071C10.5193 28.8946 10.265 28.9999 9.99979 28.9999C9.73462 28.9999 9.48031 28.8946 9.29279 28.7071L5.29279 24.7071C5.10532 24.5196 5 24.2652 5 24.0001C5 23.7349 5.10532 23.4806 5.29279 23.2931Z" fill="#242424"/>
</g>
</svg>
